<?xml version="1.0" encoding="UTF-8" standalone="no"?>
<svg
   viewBox="0 0 405 500"
   version="1.1"
   id="svg273"
   sodipodi:docname="me.svg"
   inkscape:version="1.1.2 (b8e25be833, 2022-02-05)"
   width="405"
   height="500"
   xmlns:inkscape="http://www.inkscape.org/namespaces/inkscape"
   xmlns:sodipodi="http://sodipodi.sourceforge.net/DTD/sodipodi-0.dtd"
   xmlns="http://www.w3.org/2000/svg"
   xmlns:svg="http://www.w3.org/2000/svg">
  <defs
     id="defs277">
    <linearGradient
       id="linearGradient1713"
       inkscape:swatch="solid">
      <stop
         style="stop-color:#000000;stop-opacity:1;"
         offset="0"
         id="stop1711" />
    </linearGradient>
    <clipPath
       clipPathUnits="userSpaceOnUse"
       id="clipPath1200">
      <rect
         style="fill:#292929"
         id="rect1202"
         width="400.67249"
         height="382.19058"
         x="61.580002"
         y="94.059402" />
    </clipPath>
    <clipPath
       clipPathUnits="userSpaceOnUse"
       id="clipPath1204">
      <rect
         style="fill:#292929"
         id="rect1206"
         width="400.67249"
         height="382.19058"
         x="61.580002"
         y="94.059402" />
    </clipPath>
    <clipPath
       clipPathUnits="userSpaceOnUse"
       id="clipPath1208">
      <rect
         style="fill:#292929"
         id="rect1210"
         width="400.67249"
         height="382.19058"
         x="61.580002"
         y="94.059402" />
    </clipPath>
  </defs>
  <sodipodi:namedview
     id="namedview275"
     pagecolor="#ffffff"
     bordercolor="#666666"
     borderopacity="1.0"
     inkscape:pageshadow="2"
     inkscape:pageopacity="0.0"
     inkscape:pagecheckerboard="0"
     showgrid="false"
     inkscape:zoom="1.616"
     inkscape:cx="392.63614"
     inkscape:cy="317.7599"
     inkscape:window-width="1920"
     inkscape:window-height="1001"
     inkscape:window-x="-9"
     inkscape:window-y="-9"
     inkscape:window-maximized="1"
     inkscape:current-layer="svg273" />
  <g
     id="freepik--Plant--inject-309"
     clip-path="url(#clipPath1204)"
     transform="matrix(1.3910832,0,0,1.1952105,-137.78264,-69.531938)">
    <line
       x1="123.67"
       y1="324.26001"
       x2="139.55"
       y2="476.04999"
       style="fill:none;stroke:#263238;stroke-width:2px;stroke-miterlimit:10"
       id="line5" />
    <line
       x1="136.73"
       y1="444.91"
       x2="129.67"
       y2="437.45001"
       style="fill:none;stroke:#263238;stroke-width:2px;stroke-miterlimit:10"
       id="line7" />
    <path
       d="m 131.82,439.69 a 8,8 0 0 0 -2.81,-6 c -1.81,-1.62 -11.35,-5.63 -12.25,-2.27 -0.99,3.66 8.77,10.84 15.06,8.27 z"
       style="fill:#ffffff;stroke:#263238;stroke-miterlimit:10"
       id="path9" />
    <line
       x1="131.82001"
       y1="439.69"
       x2="122.74"
       y2="434.03"
       style="fill:none;stroke:#263238;stroke-width:0.5px;stroke-miterlimit:10"
       id="line11" />
    <line
       x1="138.5"
       y1="461.88"
       x2="131.45"
       y2="454.42001"
       style="fill:none;stroke:#263238;stroke-width:2px;stroke-miterlimit:10"
       id="line13" />
    <path
       d="m 133.59,456.66 a 8,8 0 0 0 -2.81,-6 c -1.81,-1.62 -11.35,-5.63 -12.25,-2.27 -0.99,3.66 8.77,10.83 15.06,8.27 z"
       style="fill:#ffffff;stroke:#263238;stroke-miterlimit:10"
       id="path15" />
    <line
       x1="133.59"
       y1="456.66"
       x2="124.51"
       y2="451"
       style="fill:none;stroke:#263238;stroke-width:0.5px;stroke-miterlimit:10"
       id="line17" />
    <line
       x1="132.41"
       y1="403.5"
       x2="125.35"
       y2="396.04999"
       style="fill:none;stroke:#263238;stroke-width:2px;stroke-miterlimit:10"
       id="line19" />
    <path
       d="m 127.5,398.28 a 8,8 0 0 0 -2.81,-6 c -1.81,-1.61 -11.35,-5.63 -12.25,-2.27 -0.99,3.67 8.77,10.84 15.06,8.27 z"
       style="fill:#ffffff;stroke:#263238;stroke-miterlimit:10"
       id="path21" />
    <line
       x1="127.5"
       y1="398.28"
       x2="118.42"
       y2="392.63"
       style="fill:none;stroke:#263238;stroke-width:0.5px;stroke-miterlimit:10"
       id="line23" />
    <line
       x1="134.17999"
       y1="420.47"
       x2="127.12"
       y2="413.01999"
       style="fill:none;stroke:#263238;stroke-width:2px;stroke-miterlimit:10"
       id="line25" />
    <path
       d="m 129.27,415.25 a 8,8 0 0 0 -2.81,-6 c -1.81,-1.62 -11.35,-5.63 -12.25,-2.27 -0.99,3.66 8.79,10.84 15.06,8.27 z"
       style="fill:#ffffff;stroke:#263238;stroke-miterlimit:10"
       id="path27" />
    <line
       x1="129.27"
       y1="415.25"
       x2="120.19"
       y2="409.59"
       style="fill:none;stroke:#263238;stroke-width:0.5px;stroke-miterlimit:10"
       id="line29" />
    <line
       x1="129.53999"
       y1="375.94"
       x2="122.48"
       y2="368.48001"
       style="fill:none;stroke:#263238;stroke-width:2px;stroke-miterlimit:10"
       id="line31" />
    <path
       d="m 124.62,370.72 a 8,8 0 0 0 -2.81,-6 c -1.81,-1.62 -11.35,-5.63 -12.25,-2.27 -0.98,3.66 8.78,10.84 15.06,8.27 z"
       style="fill:#ffffff;stroke:#263238;stroke-miterlimit:10"
       id="path33" />
    <line
       x1="124.62"
       y1="370.72"
       x2="115.54"
       y2="365.06"
       style="fill:none;stroke:#263238;stroke-width:0.5px;stroke-miterlimit:10"
       id="line35" />
    <line
       x1="126.65"
       y1="348.26001"
       x2="119.59"
       y2="340.79999"
       style="fill:none;stroke:#263238;stroke-width:2px;stroke-miterlimit:10"
       id="line37" />
    <path
       d="m 121.73,343 a 8,8 0 0 0 -2.81,-6 c -1.81,-1.62 -11.34,-5.63 -12.25,-2.27 -0.98,3.7 8.78,10.87 15.06,8.27 z"
       style="fill:#ffffff;stroke:#263238;stroke-miterlimit:10"
       id="path39" />
    <line
       x1="121.73"
       y1="343.03"
       x2="112.65"
       y2="337.38"
       style="fill:none;stroke:#263238;stroke-width:0.5px;stroke-miterlimit:10"
       id="line41" />
    <line
       x1="135.55"
       y1="434.87"
       x2="140.91"
       y2="426.12"
       style="fill:none;stroke:#263238;stroke-width:2px;stroke-miterlimit:10"
       id="line43" />
    <path
       d="m 139.28,428.75 a 8,8 0 0 1 1.51,-6.44 c 1.44,-2 9.94,-7.85 11.52,-4.75 1.69,3.37 -6.31,12.44 -13.03,11.19 z"
       style="fill:#ffffff;stroke:#263238;stroke-miterlimit:10"
       id="path45" />
    <line
       x1="139.28"
       y1="428.75"
       x2="147.45"
       y2="420.92999"
       style="fill:none;stroke:#263238;stroke-width:0.5px;stroke-miterlimit:10"
       id="line47" />
    <line
       x1="130.89"
       y1="390.22"
       x2="136.25"
       y2="381.47"
       style="fill:none;stroke:#263238;stroke-width:2px;stroke-miterlimit:10"
       id="line49" />
    <path
       d="m 134.62,384.09 a 8,8 0 0 1 1.51,-6.43 c 1.44,-2 9.94,-7.86 11.52,-4.76 1.72,3.37 -6.35,12.41 -13.03,11.19 z"
       style="fill:#ffffff;stroke:#263238;stroke-miterlimit:10"
       id="path51" />
    <line
       x1="134.62"
       y1="384.09"
       x2="142.78999"
       y2="376.28"
       style="fill:none;stroke:#263238;stroke-width:0.5px;stroke-miterlimit:10"
       id="line53" />
    <line
       x1="128.84"
       y1="370.59"
       x2="134.21001"
       y2="361.84"
       style="fill:none;stroke:#263238;stroke-width:2px;stroke-miterlimit:10"
       id="line55" />
    <path
       d="m 132.57,364.47 a 8,8 0 0 1 1.51,-6.44 c 1.44,-1.95 9.94,-7.85 11.52,-4.75 1.72,3.37 -6.35,12.41 -13.03,11.19 z"
       style="fill:#ffffff;stroke:#263238;stroke-miterlimit:10"
       id="path57" />
    <line
       x1="132.57001"
       y1="364.47"
       x2="140.74001"
       y2="356.66"
       style="fill:none;stroke:#263238;stroke-width:0.5px;stroke-miterlimit:10"
       id="line59" />
    <line
       x1="125.84"
       y1="341.82999"
       x2="131.2"
       y2="333.07999"
       style="fill:none;stroke:#263238;stroke-width:2px;stroke-miterlimit:10"
       id="line61" />
    <path
       d="m 129.57,335.7 a 8,8 0 0 1 1.51,-6.44 c 1.44,-1.95 9.94,-7.85 11.52,-4.75 1.72,3.37 -6.35,12.41 -13.03,11.19 z"
       style="fill:#ffffff;stroke:#263238;stroke-miterlimit:10"
       id="path63" />
    <line
       x1="129.57001"
       y1="335.70001"
       x2="137.74001"
       y2="327.89001"
       style="fill:none;stroke:#263238;stroke-width:0.5px;stroke-miterlimit:10"
       id="line65" />
    <path
       d="m 123.54,323.43 a 8,8 0 0 1 1.51,-6.43 c 1.44,-2 9.94,-7.86 11.52,-4.76 1.72,3.37 -6.35,12.41 -13.03,11.19 z"
       style="fill:#ffffff;stroke:#263238;stroke-miterlimit:10"
       id="path67" />
    <line
       x1="123.54"
       y1="323.42999"
       x2="131.72"
       y2="315.62"
       style="fill:none;stroke:#263238;stroke-width:0.5px;stroke-miterlimit:10"
       id="line69" />
    <path
       d="m 124,323.77 a 8,8 0 0 1 -6.25,-2.18 c -1.8,-1.63 -6.77,-10.71 -3.52,-11.95 3.55,-1.36 11.69,7.62 9.77,14.13 z"
       style="fill:#ffffff;stroke:#263238;stroke-miterlimit:10"
       id="path71" />
    <line
       x1="124.02"
       y1="323.76999"
       x2="117.1"
       y2="314.82001"
       style="fill:none;stroke:#263238;stroke-width:0.5px;stroke-miterlimit:10"
       id="line73" />
    <line
       x1="164.74001"
       y1="344.81"
       x2="151.61"
       y2="476.04999"
       style="fill:none;stroke:#263238;stroke-width:2px;stroke-miterlimit:10"
       id="line75" />
    <line
       x1="152.67999"
       y1="465.56"
       x2="147.31"
       y2="456.81"
       style="fill:none;stroke:#263238;stroke-width:2px;stroke-miterlimit:10"
       id="line77" />
    <path
       d="M 149,459.44 A 8,8 0 0 0 147.48,453 c -1.44,-1.95 -9.94,-7.84 -11.52,-4.74 -1.77,3.37 6.31,12.4 13.04,11.18 z"
       style="fill:#ffffff;stroke:#263238;stroke-miterlimit:10"
       id="path79" />
    <line
       x1="148.95"
       y1="459.44"
       x2="141.23"
       y2="452.03"
       style="fill:none;stroke:#263238;stroke-width:0.5px;stroke-miterlimit:10"
       id="line81" />
    <line
       x1="156.98"
       y1="424.14999"
       x2="151.61"
       y2="415.39999"
       style="fill:none;stroke:#263238;stroke-width:2px;stroke-miterlimit:10"
       id="line83" />
    <path
       d="m 153.24,418 a 8,8 0 0 0 -1.51,-6.44 c -1.44,-1.95 -9.95,-7.84 -11.52,-4.74 -1.72,3.4 6.35,12.43 13.03,11.18 z"
       style="fill:#ffffff;stroke:#263238;stroke-miterlimit:10"
       id="path85" />
    <line
       x1="153.24001"
       y1="418.03"
       x2="145.53"
       y2="410.63"
       style="fill:none;stroke:#263238;stroke-width:0.5px;stroke-miterlimit:10"
       id="line87" />
    <line
       x1="155.22"
       y1="441.12"
       x2="149.84"
       y2="432.37"
       style="fill:none;stroke:#263238;stroke-width:2px;stroke-miterlimit:10"
       id="line89" />
    <path
       d="m 151.48,435 a 8,8 0 0 0 -1.51,-6.44 c -1.44,-1.95 -9.95,-7.84 -11.53,-4.74 -1.71,3.37 6.36,12.4 13.04,11.18 z"
       style="fill:#ffffff;stroke:#263238;stroke-miterlimit:10"
       id="path91" />
    <line
       x1="151.48"
       y1="435"
       x2="143.75999"
       y2="427.60001"
       style="fill:none;stroke:#263238;stroke-width:0.5px;stroke-miterlimit:10"
       id="line93" />
    <line
       x1="159.84"
       y1="396.59"
       x2="154.47"
       y2="387.84"
       style="fill:none;stroke:#263238;stroke-width:2px;stroke-miterlimit:10"
       id="line95" />
    <path
       d="m 156.1,390.47 a 8,8 0 0 0 -1.51,-6.44 c -1.44,-2 -10,-7.85 -11.52,-4.75 -1.72,3.37 6.35,12.4 13.03,11.19 z"
       style="fill:#ffffff;stroke:#263238;stroke-miterlimit:10"
       id="path97" />
    <line
       x1="156.10001"
       y1="390.47"
       x2="148.39"
       y2="383.06"
       style="fill:none;stroke:#263238;stroke-width:0.5px;stroke-miterlimit:10"
       id="line99" />
    <line
       x1="162.71001"
       y1="368.89999"
       x2="157.34"
       y2="360.14999"
       style="fill:none;stroke:#263238;stroke-width:2px;stroke-miterlimit:10"
       id="line101" />
    <path
       d="m 159,362.78 a 8,8 0 0 0 -1.52,-6.44 c -1.44,-1.95 -9.94,-7.84 -11.52,-4.74 -1.74,3.4 6.34,12.4 13.04,11.18 z"
       style="fill:#ffffff;stroke:#263238;stroke-miterlimit:10"
       id="path103" />
    <line
       x1="158.98"
       y1="362.78"
       x2="151.25999"
       y2="355.38"
       style="fill:none;stroke:#263238;stroke-width:0.5px;stroke-miterlimit:10"
       id="line105" />
    <line
       x1="153.59"
       y1="455.48999"
       x2="160.64"
       y2="448.03"
       style="fill:none;stroke:#263238;stroke-width:2px;stroke-miterlimit:10"
       id="line107" />
    <path
       d="m 158.5,450.27 a 8,8 0 0 1 2.8,-6 c 1.81,-1.62 11.35,-5.64 12.26,-2.28 0.98,3.66 -8.77,10.84 -15.06,8.28 z"
       style="fill:#ffffff;stroke:#263238;stroke-miterlimit:10"
       id="path109" />
    <line
       x1="158.5"
       y1="450.26999"
       x2="168.11"
       y2="444.31"
       style="fill:none;stroke:#263238;stroke-width:0.5px;stroke-miterlimit:10"
       id="line111" />
    <line
       x1="158.22"
       y1="410.84"
       x2="165.28"
       y2="403.38"
       style="fill:none;stroke:#263238;stroke-width:2px;stroke-miterlimit:10"
       id="line113" />
    <path
       d="m 163.13,405.61 a 8,8 0 0 1 2.81,-6 c 1.81,-1.62 11.34,-5.63 12.25,-2.28 0.99,3.67 -8.77,10.85 -15.06,8.28 z"
       style="fill:#ffffff;stroke:#263238;stroke-miterlimit:10"
       id="path115" />
    <line
       x1="163.13"
       y1="405.60999"
       x2="172.74001"
       y2="399.64999"
       style="fill:none;stroke:#263238;stroke-width:0.5px;stroke-miterlimit:10"
       id="line117" />
    <line
       x1="160.25999"
       y1="391.20999"
       x2="167.31"
       y2="383.75"
       style="fill:none;stroke:#263238;stroke-width:2px;stroke-miterlimit:10"
       id="line119" />
    <path
       d="m 165.17,386 a 8,8 0 0 1 2.8,-6 c 1.81,-1.62 11.35,-5.64 12.26,-2.28 0.98,3.65 -8.77,10.83 -15.06,8.28 z"
       style="fill:#ffffff;stroke:#263238;stroke-miterlimit:10"
       id="path121" />
    <line
       x1="165.17"
       y1="385.98999"
       x2="174.78"
       y2="380.03"
       style="fill:none;stroke:#263238;stroke-width:0.5px;stroke-miterlimit:10"
       id="line123" />
    <line
       x1="163.24001"
       y1="362.44"
       x2="170.3"
       y2="354.98001"
       style="fill:none;stroke:#263238;stroke-width:2px;stroke-miterlimit:10"
       id="line125" />
    <path
       d="m 168.15,357.22 a 8,8 0 0 1 2.81,-6 c 1.81,-1.62 11.34,-5.64 12.25,-2.28 0.99,3.66 -8.77,10.84 -15.06,8.28 z"
       style="fill:#ffffff;stroke:#263238;stroke-miterlimit:10"
       id="path127" />
    <line
       x1="168.14999"
       y1="357.22"
       x2="177.75999"
       y2="351.26001"
       style="fill:none;stroke:#263238;stroke-width:0.5px;stroke-miterlimit:10"
       id="line129" />
    <path
       d="m 164.78,344 a 8,8 0 0 1 2.81,-6 c 1.81,-1.62 11.34,-5.63 12.25,-2.27 0.99,3.63 -8.77,10.81 -15.06,8.27 z"
       style="fill:#ffffff;stroke:#263238;stroke-miterlimit:10"
       id="path131" />
    <line
       x1="164.78"
       y1="343.97"
       x2="174.39"
       y2="338.01001"
       style="fill:none;stroke:#263238;stroke-width:0.5px;stroke-miterlimit:10"
       id="line133" />
    <path
       d="m 165.18,344.4 a 8,8 0 0 1 -5.66,-3.42 c -1.43,-2 -4.42,-11.87 -1,-12.42 3.75,-0.56 9.87,9.86 6.66,15.84 z"
       style="fill:#ffffff;stroke:#263238;stroke-miterlimit:10"
       id="path135" />
    <line
       x1="165.17999"
       y1="344.39999"
       x2="160.25"
       y2="334.22"
       style="fill:none;stroke:#263238;stroke-width:0.5px;stroke-miterlimit:10"
       id="line137" />
    <line
       x1="147"
       y1="284.04999"
       x2="146.03"
       y2="476.28"
       style="fill:none;stroke:#263238;stroke-width:2px;stroke-miterlimit:10"
       id="line139" />
    <line
       x1="147.14999"
       y1="444.37"
       x2="140.89999"
       y2="436.22"
       style="fill:none;stroke:#263238;stroke-width:2px;stroke-miterlimit:10"
       id="line141" />
    <path
       d="m 142.8,438.66 a 8,8 0 0 0 -2.17,-6.24 c -1.63,-1.8 -10.7,-6.78 -11.95,-3.54 -1.36,3.54 7.6,11.68 14.12,9.78 z"
       style="fill:#ffffff;stroke:#263238;stroke-miterlimit:10"
       id="path143" />
    <line
       x1="142.8"
       y1="438.66"
       x2="134.36"
       y2="432.09"
       style="fill:none;stroke:#263238;stroke-width:0.5px;stroke-miterlimit:10"
       id="line145" />
    <line
       x1="147.14999"
       y1="408.91"
       x2="140.89999"
       y2="400.76001"
       style="fill:none;stroke:#263238;stroke-width:2px;stroke-miterlimit:10"
       id="line147" />
    <path
       d="m 142.8,403.2 a 8,8 0 0 0 -2.17,-6.24 c -1.63,-1.8 -10.7,-6.78 -11.95,-3.53 -1.36,3.57 7.6,11.67 14.12,9.77 z"
       style="fill:#ffffff;stroke:#263238;stroke-miterlimit:10"
       id="path149" />
    <line
       x1="142.8"
       y1="403.20001"
       x2="134.36"
       y2="396.63"
       style="fill:none;stroke:#263238;stroke-width:0.5px;stroke-miterlimit:10"
       id="line151" />
    <line
       x1="147.14999"
       y1="367.28"
       x2="140.89999"
       y2="359.13"
       style="fill:none;stroke:#263238;stroke-width:2px;stroke-miterlimit:10"
       id="line153" />
    <path
       d="m 142.8,361.57 a 8,8 0 0 0 -2.17,-6.24 c -1.63,-1.8 -10.7,-6.78 -11.95,-3.53 -1.36,3.53 7.6,11.67 14.12,9.77 z"
       style="fill:#ffffff;stroke:#263238;stroke-miterlimit:10"
       id="path155" />
    <line
       x1="142.8"
       y1="361.57001"
       x2="134.36"
       y2="355"
       style="fill:none;stroke:#263238;stroke-width:0.5px;stroke-miterlimit:10"
       id="line157" />
    <line
       x1="147.14999"
       y1="339.56"
       x2="140.89999"
       y2="331.42001"
       style="fill:none;stroke:#263238;stroke-width:2px;stroke-miterlimit:10"
       id="line159" />
    <path
       d="m 142.8,333.86 a 8,8 0 0 0 -2.17,-6.25 c -1.63,-1.79 -10.7,-6.77 -11.95,-3.53 -1.36,3.53 7.6,11.68 14.12,9.78 z"
       style="fill:#ffffff;stroke:#263238;stroke-miterlimit:10"
       id="path161" />
    <line
       x1="142.8"
       y1="333.85999"
       x2="134.36"
       y2="327.29001"
       style="fill:none;stroke:#263238;stroke-width:0.5px;stroke-miterlimit:10"
       id="line163" />
    <line
       x1="147.14999"
       y1="311.73001"
       x2="140.89999"
       y2="303.57999"
       style="fill:none;stroke:#263238;stroke-width:2px;stroke-miterlimit:10"
       id="line165" />
    <path
       d="m 142.8,306 a 8,8 0 0 0 -2.17,-6.25 c -1.63,-1.8 -10.7,-6.78 -11.95,-3.53 -1.36,3.56 7.6,11.71 14.12,9.78 z"
       style="fill:#ffffff;stroke:#263238;stroke-miterlimit:10"
       id="path167" />
    <line
       x1="142.8"
       y1="306.03"
       x2="134.36"
       y2="299.45999"
       style="fill:none;stroke:#263238;stroke-width:0.5px;stroke-miterlimit:10"
       id="line169" />
    <line
       x1="147.00999"
       y1="455.19"
       x2="153.25999"
       y2="447.04999"
       style="fill:none;stroke:#263238;stroke-width:2px;stroke-miterlimit:10"
       id="line171" />
    <path
       d="m 151.36,449.49 a 8,8 0 0 1 2.17,-6.25 c 1.63,-1.79 10.7,-6.77 11.95,-3.53 1.36,3.53 -7.61,11.68 -14.12,9.78 z"
       style="fill:#ffffff;stroke:#263238;stroke-miterlimit:10"
       id="path173" />
    <line
       x1="151.36"
       y1="449.48999"
       x2="160.3"
       y2="442.57001"
       style="fill:none;stroke:#263238;stroke-width:0.5px;stroke-miterlimit:10"
       id="line175" />
    <line
       x1="147.00999"
       y1="398.79999"
       x2="153.25999"
       y2="390.64999"
       style="fill:none;stroke:#263238;stroke-width:2px;stroke-miterlimit:10"
       id="line177" />
    <path
       d="m 151.36,393.1 a 8,8 0 0 1 2.17,-6.25 c 1.63,-1.8 10.7,-6.78 11.95,-3.53 1.36,3.53 -7.61,11.68 -14.12,9.78 z"
       style="fill:#ffffff;stroke:#263238;stroke-miterlimit:10"
       id="path179" />
    <line
       x1="151.36"
       y1="393.10001"
       x2="160.3"
       y2="386.17001"
       style="fill:none;stroke:#263238;stroke-width:0.5px;stroke-miterlimit:10"
       id="line181" />
    <line
       x1="147.00999"
       y1="370.95999"
       x2="153.25999"
       y2="362.82001"
       style="fill:none;stroke:#263238;stroke-width:2px;stroke-miterlimit:10"
       id="line183" />
    <path
       d="m 151.36,365.26 a 8,8 0 0 1 2.17,-6.25 c 1.63,-1.79 10.7,-6.77 11.95,-3.53 1.36,3.52 -7.61,11.68 -14.12,9.78 z"
       style="fill:#ffffff;stroke:#263238;stroke-miterlimit:10"
       id="path185" />
    <line
       x1="151.36"
       y1="365.26001"
       x2="160.3"
       y2="358.34"
       style="fill:none;stroke:#263238;stroke-width:0.5px;stroke-miterlimit:10"
       id="line187" />
    <line
       x1="147.00999"
       y1="334.17001"
       x2="153.25999"
       y2="326.03"
       style="fill:none;stroke:#263238;stroke-width:2px;stroke-miterlimit:10"
       id="line189" />
    <path
       d="m 151.36,328.47 a 8,8 0 0 1 2.17,-6.25 c 1.63,-1.79 10.7,-6.77 11.95,-3.53 1.36,3.53 -7.61,11.68 -14.12,9.78 z"
       style="fill:#ffffff;stroke:#263238;stroke-miterlimit:10"
       id="path191" />
    <line
       x1="151.36"
       y1="328.47"
       x2="160.3"
       y2="321.54999"
       style="fill:none;stroke:#263238;stroke-width:0.5px;stroke-miterlimit:10"
       id="line193" />
    <line
       x1="147.00999"
       y1="305.25"
       x2="153.25999"
       y2="297.10001"
       style="fill:none;stroke:#263238;stroke-width:2px;stroke-miterlimit:10"
       id="line195" />
    <path
       d="m 151.36,299.55 a 8,8 0 0 1 2.17,-6.25 c 1.63,-1.8 10.7,-6.78 11.95,-3.53 1.36,3.53 -7.61,11.68 -14.12,9.78 z"
       style="fill:#ffffff;stroke:#263238;stroke-miterlimit:10"
       id="path197" />
    <line
       x1="151.36"
       y1="299.54999"
       x2="160.3"
       y2="292.63"
       style="fill:none;stroke:#263238;stroke-width:0.5px;stroke-miterlimit:10"
       id="line199" />
    <path
       d="m 146.64,286.72 a 8,8 0 0 1 2.17,-6.25 c 1.63,-1.8 10.7,-6.77 11.95,-3.53 1.36,3.53 -7.61,11.68 -14.12,9.78 z"
       style="fill:#ffffff;stroke:#263238;stroke-miterlimit:10"
       id="path201" />
    <line
       x1="146.64"
       y1="286.72"
       x2="155.58"
       y2="279.79999"
       style="fill:none;stroke:#263238;stroke-width:0.5px;stroke-miterlimit:10"
       id="line203" />
    <path
       d="m 147.07,287.1 a 8,8 0 0 1 -6,-2.81 c -1.62,-1.82 -5.62,-11.36 -2.26,-12.26 3.67,-0.98 10.84,8.79 8.26,15.07 z"
       style="fill:#ffffff;stroke:#263238;stroke-miterlimit:10"
       id="path205" />
    <line
       x1="147.07001"
       y1="287.10001"
       x2="141.13"
       y2="277.48999"
       style="fill:none;stroke:#263238;stroke-width:0.5px;stroke-miterlimit:10"
       id="line207" />
  </g>
  <g
     id="freepik--Character--inject-309"
     clip-path="url(#clipPath1200)"
     transform="matrix(1.4128237,0,0,1.3126661,-210.73863,-125.40939)">
    <polygon
       points="395.26,409.62 258.41,409.62 250.85,476.25 401.04,476.25 "
       style="fill:#263238;stroke:#263238;stroke-miterlimit:10"
       id="polygon210" />
    <path
       d="m 317.22,207.67 c 0,0 -40,11 -57.5,24.24 -17.5,13.24 -29.6,26.78 -26.78,52.43 2.82,25.65 21.14,95.83 21.14,95.83 0,0 -2.54,28.47 -2.54,30.16 0,1.69 -0.28,6.48 5.92,6.76 6.2,0.28 80.61,3.39 97.24,3.67 16.63,0.28 38.62,-1.41 41.15,-3.38 a 11.76,11.76 0 0 0 4.23,-8.46 c 0.28,-3.38 3.1,-44.82 3.1,-44.82 l 0.28,-18.6 c 0,0 18.33,-60.88 19.45,-80.61 1.12,-19.73 -6.2,-26.21 -14.37,-32.41 -8.17,-6.2 -33.61,-16.7 -47.35,-20.86 -13.74,-4.16 -43.97,-3.95 -43.97,-3.95 z"
       style="fill:#ffffff;stroke:#263238;stroke-miterlimit:10"
       id="path212" />
    <path
       d="m 327.09,302.27 c -2,27.45 -5.66,78 -5.34,86.71 0.45,12 -4.44,15.55 -4.44,20"
       style="fill:none;stroke:#263238;stroke-miterlimit:10"
       id="path214" />
    <path
       d="m 328.42,284.56 c 0,0 -0.36,4.67 -0.91,12.06"
       style="fill:none;stroke:#263238;stroke-miterlimit:10"
       id="path216" />
    <polygon
       points="346.28,319.82 348.84,350.02 363.17,349 "
       style="fill:#263238;stroke:#263238;stroke-miterlimit:10"
       id="polygon218" />
    <path
       d="m 332.7,372.48 c 0,0 35,-5.5 37.63,-4.92 2.63,0.58 20.55,9.26 23.16,9.84 a 24.34,24.34 0 0 1 4.92,1.74 l 3.93,3.29 -1.34,-9.95 c 0,0 -5.21,-6.37 -16.79,-11 -11.58,-4.63 -17.37,-2 -20,-1.15 -2.63,0.85 -31.51,12.15 -31.51,12.15 z"
       style="fill:#263238;stroke:#263238;stroke-miterlimit:10"
       id="path220" />
    <path
       d="m 278.88,346.07 91,-0.29 c 0,0 29.32,-2.81 30.44,-3.1 1.12,-0.29 12.69,2.82 13.82,3.67 1.13,0.85 1.12,3.38 0.56,5.92 l -0.56,2.53 a 53.38,53.38 0 0 1 0.84,6.49 c 0,2 -2.25,2.53 -2.54,3.38 -0.29,0.85 1.7,3.94 -0.56,5.92 l -2.25,2 c 0,0 -0.29,5.36 -1.41,6.77 -1.12,1.41 -4.51,3.94 -5.92,3.1 -1.41,-0.84 -0.85,-3.1 -0.85,-4.51 0,-1.41 -0.56,-2.82 -2.25,-2.82 -1.69,0 -2,1.41 -10.71,-0.85 -8.71,-2.26 -18.32,-9.86 -19.17,-10.15 -0.85,-0.29 -77.23,20.3 -99.78,23.12 -22.55,2.82 -24.52,-0.28 -25.37,-4 -0.85,-3.72 -2.25,-12.4 -2.25,-12.4 l -4,-17.19 z"
       style="fill:#ffffff;stroke:#263238;stroke-miterlimit:10"
       id="path222" />
    <path
       d="m 338.05,240.71 c 0,0 4.71,-5 7.68,-2.73 2.97,2.27 5.69,14.11 9.4,13.12 3.71,-0.99 11.14,-24 11.14,-33.16 0,-9.16 -6.44,-14.6 -7.92,-15.1 -1.48,-0.5 -39.35,-1 -43.81,0.75 -4.46,1.75 -6.18,17.32 -7.91,26.72 -1.73,9.4 2.22,11.63 4.7,10.4 2.48,-1.23 12.12,-5.2 14.35,-5.2 2.23,0 12.37,5.2 12.37,5.2 z"
       style="fill:#ffffff;stroke:#263238;stroke-miterlimit:10"
       id="path224" />
    <path
       d="m 363.4,188.54 c 0,0 -3.55,17.54 -4.93,21.87 -1.38,4.33 -11.43,17.54 -14,20.3 -2.57,2.76 -10.05,16.35 -12,16.75 -1.95,0.4 -7.47,-18.13 -7.47,-18.13 0,0 -7.1,-12.22 -8.48,-15.37 -1.38,-3.15 -3.52,-12.41 -3.52,-12.41 0,0 11.62,10 24,7.88 12.38,-2.12 18.71,-14.58 18.71,-14.58 z"
       style="fill:#ffffff;stroke:#263238;stroke-miterlimit:10"
       id="path226" />
    <path
       d="m 315.29,153.6 c 0,0 -3.47,-3.72 -5.45,2 -1.98,5.72 2,15.83 2,15.83 z"
       style="fill:#ffffff;stroke:#263238;stroke-miterlimit:10"
       id="path228" />
    <path
       d="m 315.91,142 c 0,0 -5.71,40.59 -5.71,43 0,2.41 -1.58,10.24 0.79,15.37 2.37,5.13 9.45,11.42 15.17,12.21 5.72,0.79 16.94,-0.39 23.25,-5.32 6.31,-4.93 13.59,-15.56 13.59,-15.56 0,0 7.89,-1.19 13,-3.35 5.11,-2.16 9.06,-7.1 8.87,-12.22 a 17.18,17.18 0 0 0 -3.35,-9.06 l -3,-5.52 7.88,-14.78 c 0,0 -4.53,-8.47 -19.11,-16.55 -14.58,-8.08 -27.59,-10.64 -33.69,-10.64 -6.1,0 -13.8,2.56 -16,7.49 -2.2,4.93 -1.69,14.93 -1.69,14.93 z"
       style="fill:#ffffff;stroke:#263238;stroke-miterlimit:10"
       id="path230" />
    <path
       d="m 334.63,122.14 c 0,0 11.23,18.52 19.71,17.74 8.48,-0.78 11,-4.73 11,-4.73 l 5.71,7.68 c 0,0 -6.1,2.56 -4.92,5.72 1.18,3.16 6.5,10.24 6.5,10.24 l -4.34,18.52 c 0,0 3.35,0.59 3.95,-0.59 0.6,-1.18 3.54,-8.47 3.54,-8.47 a 10.22,10.22 0 0 1 2.56,-1.18 7.52,7.52 0 0 1 3.16,0 c 0,0 2.16,-7.29 3,-7.49 0.84,-0.2 8.67,-2.37 11.63,-10.05 2.96,-7.68 -1.58,-19.9 -11.83,-29.55 -10.25,-9.65 -31.92,-12.22 -33.1,-14 -1.18,-1.78 5.52,0.78 4.14,-3.16 -1.38,-3.94 -10.05,-9.06 -21.08,-3.54 -11.03,5.52 -9.46,11.62 -8.28,13.59 l 1.18,2 c 0,0 -9.26,-3.15 -15.76,0.79 -6.5,3.94 -9.65,11.82 -6.7,12.61 2.95,0.79 6.7,-1 6.7,-1 0,0 -3.94,6.5 -2.76,7.88 1.18,1.38 7.29,6.89 7.29,6.89 0,0 2.37,-13.79 7.29,-15.76 4.92,-1.97 11.41,-4.14 11.41,-4.14 z"
       style="fill:#263238;stroke:#263238;stroke-miterlimit:10"
       id="path232" />
    <polyline
       points="331.08 148.74 332.86 154.46 322.81 173.37 333.45 177.51"
       style="fill:none;stroke:#263238;stroke-miterlimit:10"
       id="polyline234" />
    <path
       d="m 329.11,146.57 c 0,0 -4.72,-3.74 -8.67,-2.75 -3.95,0.99 -1.57,1.57 1.19,2.56 2.76,0.99 8.27,3.54 7.48,0.19 z"
       style="fill:#263238;stroke:#263238;stroke-miterlimit:10"
       id="path236" />
    <path
       d="m 343.7,145.79 c 0,0 -4.54,1.18 -2.37,2.16 2.17,0.98 8.67,-1 11.23,0 2.56,1 5.91,4.34 5.72,2.76 A 8,8 0 0 0 353,144.8 c -3.59,-1.18 -9.3,0.99 -9.3,0.99 z"
       style="fill:#263238;stroke:#263238;stroke-miterlimit:10"
       id="path238" />
    <path
       d="m 326.51,155.32 c -0.35,1.43 -1.31,2.42 -2.16,2.21 -0.85,-0.21 -1.25,-1.52 -0.91,-2.95 0.34,-1.43 1.32,-2.42 2.16,-2.22 0.84,0.2 1.25,1.53 0.91,2.96 z"
       style="fill:#263238"
       id="path240" />
    <path
       d="m 348,160.94 c -0.35,1.42 -1.32,2.41 -2.16,2.21 -0.84,-0.2 -1.25,-1.53 -0.91,-3 0.34,-1.47 1.31,-2.42 2.16,-2.21 0.85,0.21 1.24,1.57 0.91,3 z"
       style="fill:#263238"
       id="path242" />
    <line
       x1="316.70001"
       y1="179.87"
       x2="324.78"
       y2="185.19"
       style="fill:none;stroke:#263238;stroke-miterlimit:10"
       id="line244" />
    <path
       d="m 399.8,227.68 c 0,0 27.9,10.72 33.26,26.78 5.36,16.06 -1.41,36.36 -4.23,44.82 -2.82,8.46 -20.29,41.43 -23.11,49.32 -2.82,7.89 -7.05,17.48 -7.05,17.48 0,0 -3.94,-23.68 -14.67,-38.33 -10.73,-14.65 -13.25,-27.91 -13.25,-27.91 0,0 19.45,-34.39 24.52,-45.1"
       style="fill:#ffffff;stroke:#263238;stroke-miterlimit:10"
       id="path246" />
    <path
       d="m 373.73,293.88 c 0,0 5.71,-2.85 7.61,-1.9 1.9,0.95 26.33,14 29.5,28.87 a 50.55,50.55 0 0 1 -4.44,33 c -2.86,5.4 -8.25,15.86 -12.37,17.13 -4.12,1.27 -7.62,-32.67 -16.18,-50.43 -8.56,-17.76 -4.12,-26.67 -4.12,-26.67 z"
       style="fill:#ffffff;stroke:#263238;stroke-miterlimit:10"
       id="path248" />
    <path
       d="m 383.17,277.57 c 0,0 5.07,-17.19 7.05,-23.95"
       style="fill:none;stroke:#263238;stroke-miterlimit:10"
       id="path250" />
    <path
       d="m 332.27,216.52 c 0,0 -7.88,-11 -14,-18.32 -6.12,-7.32 -12.42,-11.63 -14.58,-11 -2.16,0.63 -3,2.76 -1.58,5.32 1.42,2.56 7.88,8.28 9.06,9.86 1.18,1.58 3,7.29 3,7.29 0,0 -5.71,0.39 -6.7,1.57 a 26.41,26.41 0 0 0 -2.36,4.34 8.37,8.37 0 0 0 -3,2.56 7,7 0 0 0 -1.18,2.76 c -0.2,0.79 -3,2.17 -2.76,5.71 0.24,3.54 3.55,8.67 4.73,11 1.18,2.33 9.85,12.8 11.43,14.58 1.58,1.78 10.64,17.53 13,22.85 2.36,5.32 25.22,67 31.92,76.26 6.7,9.26 19.11,18.12 25.81,21.28 6.7,3.16 11.43,-2.17 14.58,-8.87 3.15,-6.7 5.91,-20.1 -0.19,-35.47 -6.1,-15.37 -18.13,-28.57 -27.39,-36.45 -9.26,-7.88 -26.6,-27.58 -28.57,-31.13 -1.97,-3.55 -4.49,-11.43 -4.49,-11.43 0,0 5.12,-15 5.51,-18.52 0.39,-3.52 -1.57,-9.85 -1,-12.61 0.57,-2.76 2.95,-8.28 3.94,-10.64 0.99,-2.36 4.33,-6.31 2.56,-8.08 -1.77,-1.77 -9.06,0.39 -11.62,4.53 a 120.38,120.38 0 0 0 -6.12,12.61 z"
       style="fill:#ffffff;stroke:#263238;stroke-miterlimit:10"
       id="path252" />
    <path
       d="m 271.37,259.19 c 0.59,-3.13 1,-5.29 1,-5.29"
       style="fill:#ffffff;stroke:#263238;stroke-miterlimit:10"
       id="path254" />
    <path
       d="m 269.58,226.84 c 0,0 -14.94,2 -30.44,18.6 -15.5,16.6 -8.74,56.09 -7.33,64.27 1.41,8.18 3.67,33.29 3.67,33.29 l 39.74,-13.25 c 0,0 -6.48,-44.25 -7.05,-48.2 -0.28,-2 0.8,-9 1.94,-15.5"
       style="fill:#ffffff;stroke:#263238;stroke-miterlimit:10"
       id="path256" />
    <path
       d="m 231.53,334.23 c 0,0 3.95,21.14 5.92,22.26 1.97,1.12 32.69,-7.32 36.08,-7.89 3.39,-0.57 5.35,0.28 5.35,-2.53 0,-2.81 -2.82,-16.07 -4.51,-18.32 -1.69,-2.25 -38.33,2.53 -41.43,3.38 -3.1,0.85 -1.41,3.1 -1.41,3.1 z"
       style="fill:#ffffff;stroke:#263238;stroke-miterlimit:10"
       id="path258" />
    <path
       d="m 254,317.89 a 159.92,159.92 0 0 1 20.33,9.86 c 0,0 -9.58,-18 -13.53,-21.71"
       style="fill:none;stroke:#263238;stroke-miterlimit:10"
       id="path260" />
    <path
       d="m 248.72,315.91 c 1.13,0.39 2.25,0.8 3.35,1.21"
       style="fill:none;stroke:#263238;stroke-miterlimit:10"
       id="path262" />
    <path
       d="m 341.16,408.18 c 7.29,-2.6 14,-5.46 18,-8.28"
       style="fill:none;stroke:#263238;stroke-miterlimit:10"
       id="path264" />
    <path
       d="m 306.79,418.22 c 0,0 15.57,-3.69 30.35,-8.65"
       style="fill:none;stroke:#263238;stroke-miterlimit:10"
       id="path266" />
    <path
       d="m 372.28,398.73 c -7.66,3.82 -19.79,9.4 -29.7,11.88"
       style="fill:none;stroke:#263238;stroke-miterlimit:10"
       id="path268" />
    <path
       d="m 379.79,394.83 c 0,0 -1.57,0.87 -4.18,2.21"
       style="fill:none;stroke:#263238;stroke-miterlimit:10"
       id="path270" />
  </g>
</svg>
