<svg width="67" height="133" viewBox="0 0 67 133" fill="none" xmlns="http://www.w3.org/2000/svg">
<rect x="60.9091" y="70.4545" width="6.09091" height="5.63636" rx="2" fill="#FF0000"/>
<rect x="60.9091" y="98.6364" width="6.09091" height="5.63636" rx="2" fill="#FF0000"/>
<rect x="60.9091" y="84.5454" width="6.09091" height="5.63636" rx="2" fill="#FF0000"/>
<rect x="60.9091" y="112.727" width="6.09091" height="5.63636" rx="2" fill="#FF0000"/>
<rect x="60.9091" y="126.818" width="6.09091" height="5.63636" rx="2" fill="#FF0000"/>
<rect width="6.09091" height="5.63636" rx="2" transform="matrix(1 0 0 -1 15.2272 62)" fill="#FF0000"/>
<rect width="6.09091" height="5.63636" rx="2" transform="matrix(1 0 0 -1 15.2272 33.8182)" fill="#FF0000"/>
<rect width="6.09091" height="5.63636" rx="2" transform="matrix(1 0 0 -1 15.2272 47.9091)" fill="#FF0000"/>
<rect width="6.09091" height="5.63636" rx="2" transform="matrix(1 0 0 -1 15.2272 19.7273)" fill="#FF0000"/>
<rect width="6.09091" height="5.63636" rx="2" transform="matrix(1 0 0 -1 15.2272 5.63641)" fill="#FF0000"/>
<rect x="45.6818" y="70.4545" width="6.09091" height="5.63636" rx="2" fill="#FF0000"/>
<rect x="45.6818" y="98.6364" width="6.09091" height="5.63636" rx="2" fill="#FF0000"/>
<rect x="45.6818" y="84.5454" width="6.09091" height="5.63636" rx="2" fill="#FF0000"/>
<rect x="45.6818" y="112.727" width="6.09091" height="5.63636" rx="2" fill="#FF0000"/>
<rect x="45.6818" y="126.818" width="6.09091" height="5.63636" rx="2" fill="#FF0000"/>
<rect width="6.09091" height="5.63636" rx="2" transform="matrix(1 0 0 -1 0 62)" fill="#FF0000"/>
<rect width="6.09091" height="5.63636" rx="2" transform="matrix(1 0 0 -1 0 33.8182)" fill="#FF0000"/>
<rect width="6.09091" height="5.63636" rx="2" transform="matrix(1 0 0 -1 0 47.9091)" fill="#FF0000"/>
<rect width="6.09091" height="5.63636" rx="2" transform="matrix(1 0 0 -1 0 19.7273)" fill="#FF0000"/>
<rect width="6.09091" height="5.63636" rx="2" transform="matrix(1 0 0 -1 0 5.63641)" fill="#FF0000"/>
<rect x="30.4546" width="6.09091" height="5.63636" rx="2" fill="#0DB760"/>
<rect x="30.4547" y="28.1819" width="6.09091" height="5.63636" rx="2" fill="#0DB760"/>
<rect x="30.4547" y="14.0909" width="6.09091" height="5.63636" rx="2" fill="#0DB760"/>
<rect x="30.4547" y="42.2728" width="6.09091" height="5.63636" rx="2" fill="#0DB760"/>
<rect x="30.4547" y="56.3637" width="6.09091" height="5.63636" rx="2" fill="#0DB760"/>
<rect x="60.9091" width="6.09091" height="5.63636" rx="2" fill="#0DB760"/>
<rect x="60.9091" y="28.1819" width="6.09091" height="5.63636" rx="2" fill="#0DB760"/>
<rect x="60.9091" y="14.0909" width="6.09091" height="5.63636" rx="2" fill="#0DB760"/>
<rect x="60.9091" y="42.2728" width="6.09091" height="5.63636" rx="2" fill="#0DB760"/>
<rect x="60.9091" y="56.3637" width="6.09091" height="5.63636" rx="2" fill="#0DB760"/>
<rect width="6.09091" height="5.63636" rx="2" transform="matrix(1 0 0 -1 15.2272 132.455)" fill="#0DB760"/>
<rect width="6.09091" height="5.63636" rx="2" transform="matrix(1 0 0 -1 15.2272 104.273)" fill="#0DB760"/>
<rect width="6.09091" height="5.63636" rx="2" transform="matrix(1 0 0 -1 15.2272 118.364)" fill="#0DB760"/>
<rect width="6.09091" height="5.63636" rx="2" transform="matrix(1 0 0 -1 15.2272 90.1818)" fill="#0DB760"/>
<rect width="6.09091" height="5.63636" rx="2" transform="matrix(1 0 0 -1 15.2272 76.0909)" fill="#0DB760"/>
<rect x="45.6818" width="6.09091" height="5.63636" rx="2" fill="#0DB760"/>
<rect x="45.6818" y="28.1819" width="6.09091" height="5.63636" rx="2" fill="#0DB760"/>
<rect x="45.6818" y="14.0909" width="6.09091" height="5.63636" rx="2" fill="#0DB760"/>
<rect x="45.6818" y="42.2728" width="6.09091" height="5.63636" rx="2" fill="#0DB760"/>
<rect x="45.6818" y="56.3637" width="6.09091" height="5.63636" rx="2" fill="#0DB760"/>
<rect width="6.09091" height="5.63636" rx="2" transform="matrix(1 0 0 -1 0 132.455)" fill="#0DB760"/>
<rect width="6.09091" height="5.63636" rx="2" transform="matrix(1 0 0 -1 0 104.273)" fill="#0DB760"/>
<rect width="6.09091" height="5.63636" rx="2" transform="matrix(1 0 0 -1 0 118.364)" fill="#0DB760"/>
<rect width="6.09091" height="5.63636" rx="2" transform="matrix(1 0 0 -1 0 90.1818)" fill="#0DB760"/>
<rect width="6.09091" height="5.63636" rx="2" transform="matrix(1 0 0 -1 0 76.0909)" fill="#0DB760"/>
<rect x="30.4546" y="70.4545" width="6.09091" height="5.63636" rx="2" fill="#0DB760"/>
<rect x="30.4547" y="98.6364" width="6.09091" height="5.63636" rx="2" fill="#0DB760"/>
<rect x="30.4547" y="84.5454" width="6.09091" height="5.63636" rx="2" fill="#0DB760"/>
<rect x="30.4547" y="112.727" width="6.09091" height="5.63636" rx="2" fill="#0DB760"/>
<rect x="30.4547" y="126.818" width="6.09091" height="5.63636" rx="2" fill="#0DB760"/>
</svg>
